# xmcd
#
# Track frame offsets: 
#        200
#        16502
#        31179
#        40634
#        53968
#        67074
#        79131
#        91237
#        108513
#        121921
#        151822
#        166122
#
# Disc length: 2444 seconds
#
# Revision: 2
# Processed by: cddbd v1.5.2PL0 Copyright (c) Steve Scherf et al.
# Submitted via: ExactAudioCopyFreeDBPlugin 1.0
#
DISCID=83098a0c
DTITLE=Daryl Davis - American Roots
DYEAR=2000
DGENRE=Blues
TTITLE0=I'm A Boogie Man
TTITLE1=Leave Me Alone
TTITLE2=We All Owe A Debt
TTITLE3=Let Me Boogie With Your Woogie
TTITLE4=Going Back To The Country
TTITLE5=Romp In The Swamp
TTITLE6=Broadminded
TTITLE7=Double "D" Blues
TTITLE8=Karen Lee
TTITLE9=I'm Coming Back
TTITLE10=One Foot In The Graveyard
TTITLE11=Y2K Boogie
EXTD=
EXTT0=
EXTT1=
EXTT2=(Dedicated to Chuck Berry)
EXTT3=
EXTT4=
EXTT5=
EXTT6=
EXTT7=(Dedicated to Johnnie Johnson)
EXTT8=
EXTT9=
EXTT10=
EXTT11=(Dedicated to Pinetop Perkins)
PLAYORDER=
